<mxfile host="app.diagrams.net" modified="2023-10-28T17:11:24.310Z" agent="Mozilla/5.0 (Windows NT 10.0; Win64; x64; rv:109.0) Gecko/20100101 Firefox/119.0" etag="EdotPgA4gx22GedZ8dcY" version="22.0.8" type="onedrive">
  <diagram name="PÃ¡gina-1" id="0woT0qAVTGYqNRdLZ5z8">
    <mxGraphModel grid="1" page="1" gridSize="10" guides="1" tooltips="1" connect="1" arrows="1" fold="1" pageScale="1" pageWidth="827" pageHeight="1169" math="0" shadow="0">
      <root>
        <mxCell id="0" />
        <mxCell id="1" parent="0" />
        <mxCell id="-7Dlyxa-SyO5wOfK9ul6-1" value="&lt;blockquote&gt;users_metadata&lt;/blockquote&gt;" style="swimlane;fontStyle=0;childLayout=stackLayout;horizontal=1;startSize=30;horizontalStack=0;resizeParent=1;resizeParentMax=0;resizeLast=0;collapsible=1;marginBottom=0;whiteSpace=wrap;html=1;" vertex="1" parent="1">
          <mxGeometry x="-540" y="-20" width="190" height="210" as="geometry" />
        </mxCell>
        <mxCell id="-7Dlyxa-SyO5wOfK9ul6-2" value="&lt;div&gt;id (PK)&lt;/div&gt;" style="text;strokeColor=none;fillColor=none;align=left;verticalAlign=middle;spacingLeft=4;spacingRight=4;overflow=hidden;points=[[0,0.5],[1,0.5]];portConstraint=eastwest;rotatable=0;whiteSpace=wrap;html=1;" vertex="1" parent="-7Dlyxa-SyO5wOfK9ul6-1">
          <mxGeometry y="30" width="190" height="30" as="geometry" />
        </mxCell>
        <mxCell id="a1d7VN123PgCirPlM15Y-13" value="rut varchar(15)" style="text;strokeColor=none;fillColor=none;align=left;verticalAlign=middle;spacingLeft=4;spacingRight=4;overflow=hidden;points=[[0,0.5],[1,0.5]];portConstraint=eastwest;rotatable=0;whiteSpace=wrap;html=1;" vertex="1" parent="-7Dlyxa-SyO5wOfK9ul6-1">
          <mxGeometry y="60" width="190" height="30" as="geometry" />
        </mxCell>
        <mxCell id="-7Dlyxa-SyO5wOfK9ul6-13" value="profiles_id (FK)" style="text;strokeColor=none;fillColor=none;align=left;verticalAlign=middle;spacingLeft=4;spacingRight=4;overflow=hidden;points=[[0,0.5],[1,0.5]];portConstraint=eastwest;rotatable=0;whiteSpace=wrap;html=1;" vertex="1" parent="-7Dlyxa-SyO5wOfK9ul6-1">
          <mxGeometry y="90" width="190" height="30" as="geometry" />
        </mxCell>
        <mxCell id="-7Dlyxa-SyO5wOfK9ul6-52" value="&lt;div&gt;fire_stations_id (FK)&lt;/div&gt;" style="text;strokeColor=none;fillColor=none;align=left;verticalAlign=middle;spacingLeft=4;spacingRight=4;overflow=hidden;points=[[0,0.5],[1,0.5]];portConstraint=eastwest;rotatable=0;whiteSpace=wrap;html=1;" vertex="1" parent="-7Dlyxa-SyO5wOfK9ul6-1">
          <mxGeometry y="120" width="190" height="30" as="geometry" />
        </mxCell>
        <mxCell id="-7Dlyxa-SyO5wOfK9ul6-15" value="user_id (FK)" style="text;strokeColor=none;fillColor=none;align=left;verticalAlign=middle;spacingLeft=4;spacingRight=4;overflow=hidden;points=[[0,0.5],[1,0.5]];portConstraint=eastwest;rotatable=0;whiteSpace=wrap;html=1;" vertex="1" parent="-7Dlyxa-SyO5wOfK9ul6-1">
          <mxGeometry y="150" width="190" height="30" as="geometry" />
        </mxCell>
        <mxCell id="-7Dlyxa-SyO5wOfK9ul6-16" style="text;strokeColor=none;fillColor=none;align=left;verticalAlign=middle;spacingLeft=4;spacingRight=4;overflow=hidden;points=[[0,0.5],[1,0.5]];portConstraint=eastwest;rotatable=0;whiteSpace=wrap;html=1;" vertex="1" parent="-7Dlyxa-SyO5wOfK9ul6-1">
          <mxGeometry y="180" width="190" height="30" as="geometry" />
        </mxCell>
        <mxCell id="-7Dlyxa-SyO5wOfK9ul6-5" value="profiles" style="swimlane;fontStyle=0;childLayout=stackLayout;horizontal=1;startSize=30;horizontalStack=0;resizeParent=1;resizeParentMax=0;resizeLast=0;collapsible=1;marginBottom=0;whiteSpace=wrap;html=1;noLabel=0;" vertex="1" parent="1">
          <mxGeometry x="-540" y="-750" width="190" height="120" as="geometry">
            <mxRectangle x="550" y="310" width="60" height="30" as="alternateBounds" />
          </mxGeometry>
        </mxCell>
        <mxCell id="-7Dlyxa-SyO5wOfK9ul6-6" value="id (PK)" style="text;strokeColor=none;fillColor=none;align=left;verticalAlign=middle;spacingLeft=4;spacingRight=4;overflow=hidden;points=[[0,0.5],[1,0.5]];portConstraint=eastwest;rotatable=0;whiteSpace=wrap;html=1;" vertex="1" parent="-7Dlyxa-SyO5wOfK9ul6-5">
          <mxGeometry y="30" width="190" height="30" as="geometry" />
        </mxCell>
        <mxCell id="-7Dlyxa-SyO5wOfK9ul6-7" value="name varchar(100)" style="text;strokeColor=none;fillColor=none;align=left;verticalAlign=middle;spacingLeft=4;spacingRight=4;overflow=hidden;points=[[0,0.5],[1,0.5]];portConstraint=eastwest;rotatable=0;whiteSpace=wrap;html=1;" vertex="1" parent="-7Dlyxa-SyO5wOfK9ul6-5">
          <mxGeometry y="60" width="190" height="30" as="geometry" />
        </mxCell>
        <mxCell id="9lr_hnO2CK76h-o_0CbF-8" style="text;strokeColor=none;fillColor=none;align=left;verticalAlign=middle;spacingLeft=4;spacingRight=4;overflow=hidden;points=[[0,0.5],[1,0.5]];portConstraint=eastwest;rotatable=0;whiteSpace=wrap;html=1;" vertex="1" parent="-7Dlyxa-SyO5wOfK9ul6-5">
          <mxGeometry y="90" width="190" height="30" as="geometry" />
        </mxCell>
        <mxCell id="-7Dlyxa-SyO5wOfK9ul6-17" value="fire_trucks" style="swimlane;fontStyle=0;childLayout=stackLayout;horizontal=1;startSize=30;horizontalStack=0;resizeParent=1;resizeParentMax=0;resizeLast=0;collapsible=1;marginBottom=0;whiteSpace=wrap;html=1;" vertex="1" parent="1">
          <mxGeometry x="-80" y="-385" width="170" height="360" as="geometry" />
        </mxCell>
        <mxCell id="-7Dlyxa-SyO5wOfK9ul6-18" value="id (PK)" style="text;strokeColor=none;fillColor=none;align=left;verticalAlign=middle;spacingLeft=4;spacingRight=4;overflow=hidden;points=[[0,0.5],[1,0.5]];portConstraint=eastwest;rotatable=0;whiteSpace=wrap;html=1;" vertex="1" parent="-7Dlyxa-SyO5wOfK9ul6-17">
          <mxGeometry y="30" width="170" height="30" as="geometry" />
        </mxCell>
        <mxCell id="-7Dlyxa-SyO5wOfK9ul6-19" value="name varchar(100)" style="text;strokeColor=none;fillColor=none;align=left;verticalAlign=middle;spacingLeft=4;spacingRight=4;overflow=hidden;points=[[0,0.5],[1,0.5]];portConstraint=eastwest;rotatable=0;whiteSpace=wrap;html=1;" vertex="1" parent="-7Dlyxa-SyO5wOfK9ul6-17">
          <mxGeometry y="60" width="170" height="30" as="geometry" />
        </mxCell>
        <mxCell id="zkKq8MAxTLhn3J4NviJU-8" value="description text() NULL" style="text;strokeColor=none;fillColor=none;align=left;verticalAlign=middle;spacingLeft=4;spacingRight=4;overflow=hidden;points=[[0,0.5],[1,0.5]];portConstraint=eastwest;rotatable=0;whiteSpace=wrap;html=1;" vertex="1" parent="-7Dlyxa-SyO5wOfK9ul6-17">
          <mxGeometry y="90" width="170" height="30" as="geometry" />
        </mxCell>
        <mxCell id="-7Dlyxa-SyO5wOfK9ul6-21" value="plate varchar(100)" style="text;strokeColor=none;fillColor=none;align=left;verticalAlign=middle;spacingLeft=4;spacingRight=4;overflow=hidden;points=[[0,0.5],[1,0.5]];portConstraint=eastwest;rotatable=0;whiteSpace=wrap;html=1;" vertex="1" parent="-7Dlyxa-SyO5wOfK9ul6-17">
          <mxGeometry y="120" width="170" height="30" as="geometry" />
        </mxCell>
        <mxCell id="-7Dlyxa-SyO5wOfK9ul6-20" value="model varchar(100) NULL" style="text;strokeColor=none;fillColor=none;align=left;verticalAlign=middle;spacingLeft=4;spacingRight=4;overflow=hidden;points=[[0,0.5],[1,0.5]];portConstraint=eastwest;rotatable=0;whiteSpace=wrap;html=1;" vertex="1" parent="-7Dlyxa-SyO5wOfK9ul6-17">
          <mxGeometry y="150" width="170" height="30" as="geometry" />
        </mxCell>
        <mxCell id="-7Dlyxa-SyO5wOfK9ul6-22" value="&lt;div&gt;vin varchar(100) NULL&lt;/div&gt;" style="text;strokeColor=none;fillColor=none;align=left;verticalAlign=middle;spacingLeft=4;spacingRight=4;overflow=hidden;points=[[0,0.5],[1,0.5]];portConstraint=eastwest;rotatable=0;whiteSpace=wrap;html=1;" vertex="1" parent="-7Dlyxa-SyO5wOfK9ul6-17">
          <mxGeometry y="180" width="170" height="30" as="geometry" />
        </mxCell>
        <mxCell id="-7Dlyxa-SyO5wOfK9ul6-39" value="year int(4) NULL" style="text;strokeColor=none;fillColor=none;align=left;verticalAlign=middle;spacingLeft=4;spacingRight=4;overflow=hidden;points=[[0,0.5],[1,0.5]];portConstraint=eastwest;rotatable=0;whiteSpace=wrap;html=1;" vertex="1" parent="-7Dlyxa-SyO5wOfK9ul6-17">
          <mxGeometry y="210" width="170" height="30" as="geometry" />
        </mxCell>
        <mxCell id="zkKq8MAxTLhn3J4NviJU-13" value="type_fire_trucks_id (FK)" style="text;strokeColor=none;fillColor=none;align=left;verticalAlign=middle;spacingLeft=4;spacingRight=4;overflow=hidden;points=[[0,0.5],[1,0.5]];portConstraint=eastwest;rotatable=0;whiteSpace=wrap;html=1;" vertex="1" parent="-7Dlyxa-SyO5wOfK9ul6-17">
          <mxGeometry y="240" width="170" height="30" as="geometry" />
        </mxCell>
        <mxCell id="-7Dlyxa-SyO5wOfK9ul6-24" value="fire_stations_id (FK)" style="text;strokeColor=none;fillColor=none;align=left;verticalAlign=middle;spacingLeft=4;spacingRight=4;overflow=hidden;points=[[0,0.5],[1,0.5]];portConstraint=eastwest;rotatable=0;whiteSpace=wrap;html=1;" vertex="1" parent="-7Dlyxa-SyO5wOfK9ul6-17">
          <mxGeometry y="270" width="170" height="30" as="geometry" />
        </mxCell>
        <mxCell id="-7Dlyxa-SyO5wOfK9ul6-84" value="image text() NULL" style="text;strokeColor=none;fillColor=none;align=left;verticalAlign=middle;spacingLeft=4;spacingRight=4;overflow=hidden;points=[[0,0.5],[1,0.5]];portConstraint=eastwest;rotatable=0;whiteSpace=wrap;html=1;" vertex="1" parent="-7Dlyxa-SyO5wOfK9ul6-17">
          <mxGeometry y="300" width="170" height="30" as="geometry" />
        </mxCell>
        <mxCell id="-7Dlyxa-SyO5wOfK9ul6-38" value="created_at timestamp()" style="text;strokeColor=none;fillColor=none;align=left;verticalAlign=middle;spacingLeft=4;spacingRight=4;overflow=hidden;points=[[0,0.5],[1,0.5]];portConstraint=eastwest;rotatable=0;whiteSpace=wrap;html=1;" vertex="1" parent="-7Dlyxa-SyO5wOfK9ul6-17">
          <mxGeometry y="330" width="170" height="30" as="geometry" />
        </mxCell>
        <mxCell id="-7Dlyxa-SyO5wOfK9ul6-26" value="fire_stations" style="swimlane;fontStyle=0;childLayout=stackLayout;horizontal=1;startSize=30;horizontalStack=0;resizeParent=1;resizeParentMax=0;resizeLast=0;collapsible=1;marginBottom=0;whiteSpace=wrap;html=1;" vertex="1" parent="1">
          <mxGeometry x="-540" y="-220" width="190" height="150" as="geometry" />
        </mxCell>
        <mxCell id="-7Dlyxa-SyO5wOfK9ul6-27" value="id (PK)" style="text;strokeColor=none;fillColor=none;align=left;verticalAlign=middle;spacingLeft=4;spacingRight=4;overflow=hidden;points=[[0,0.5],[1,0.5]];portConstraint=eastwest;rotatable=0;whiteSpace=wrap;html=1;" vertex="1" parent="-7Dlyxa-SyO5wOfK9ul6-26">
          <mxGeometry y="30" width="190" height="30" as="geometry" />
        </mxCell>
        <mxCell id="-7Dlyxa-SyO5wOfK9ul6-28" value="name varchar(100)" style="text;strokeColor=none;fillColor=none;align=left;verticalAlign=middle;spacingLeft=4;spacingRight=4;overflow=hidden;points=[[0,0.5],[1,0.5]];portConstraint=eastwest;rotatable=0;whiteSpace=wrap;html=1;" vertex="1" parent="-7Dlyxa-SyO5wOfK9ul6-26">
          <mxGeometry y="60" width="190" height="30" as="geometry" />
        </mxCell>
        <mxCell id="-7Dlyxa-SyO5wOfK9ul6-30" value="address varchar(100)" style="text;strokeColor=none;fillColor=none;align=left;verticalAlign=middle;spacingLeft=4;spacingRight=4;overflow=hidden;points=[[0,0.5],[1,0.5]];portConstraint=eastwest;rotatable=0;whiteSpace=wrap;html=1;" vertex="1" parent="-7Dlyxa-SyO5wOfK9ul6-26">
          <mxGeometry y="90" width="190" height="30" as="geometry" />
        </mxCell>
        <mxCell id="-7Dlyxa-SyO5wOfK9ul6-29" value="comunes_id" style="text;strokeColor=none;fillColor=none;align=left;verticalAlign=middle;spacingLeft=4;spacingRight=4;overflow=hidden;points=[[0,0.5],[1,0.5]];portConstraint=eastwest;rotatable=0;whiteSpace=wrap;html=1;" vertex="1" parent="-7Dlyxa-SyO5wOfK9ul6-26">
          <mxGeometry y="120" width="190" height="30" as="geometry" />
        </mxCell>
        <mxCell id="-7Dlyxa-SyO5wOfK9ul6-33" value="status" style="swimlane;fontStyle=0;childLayout=stackLayout;horizontal=1;startSize=30;horizontalStack=0;resizeParent=1;resizeParentMax=0;resizeLast=0;collapsible=1;marginBottom=0;whiteSpace=wrap;html=1;" vertex="1" parent="1">
          <mxGeometry x="-80" y="-760" width="190" height="150" as="geometry" />
        </mxCell>
        <mxCell id="-7Dlyxa-SyO5wOfK9ul6-34" value="id (PK)" style="text;strokeColor=none;fillColor=none;align=left;verticalAlign=middle;spacingLeft=4;spacingRight=4;overflow=hidden;points=[[0,0.5],[1,0.5]];portConstraint=eastwest;rotatable=0;whiteSpace=wrap;html=1;" vertex="1" parent="-7Dlyxa-SyO5wOfK9ul6-33">
          <mxGeometry y="30" width="190" height="30" as="geometry" />
        </mxCell>
        <mxCell id="-7Dlyxa-SyO5wOfK9ul6-35" value="name varchar(100)" style="text;strokeColor=none;fillColor=none;align=left;verticalAlign=middle;spacingLeft=4;spacingRight=4;overflow=hidden;points=[[0,0.5],[1,0.5]];portConstraint=eastwest;rotatable=0;whiteSpace=wrap;html=1;" vertex="1" parent="-7Dlyxa-SyO5wOfK9ul6-33">
          <mxGeometry y="60" width="190" height="30" as="geometry" />
        </mxCell>
        <mxCell id="-7Dlyxa-SyO5wOfK9ul6-46" value="description text() NULL" style="text;strokeColor=none;fillColor=none;align=left;verticalAlign=middle;spacingLeft=4;spacingRight=4;overflow=hidden;points=[[0,0.5],[1,0.5]];portConstraint=eastwest;rotatable=0;whiteSpace=wrap;html=1;" vertex="1" parent="-7Dlyxa-SyO5wOfK9ul6-33">
          <mxGeometry y="90" width="190" height="30" as="geometry" />
        </mxCell>
        <mxCell id="-7Dlyxa-SyO5wOfK9ul6-37" value="type_status_id (FK)" style="text;strokeColor=none;fillColor=none;align=left;verticalAlign=middle;spacingLeft=4;spacingRight=4;overflow=hidden;points=[[0,0.5],[1,0.5]];portConstraint=eastwest;rotatable=0;whiteSpace=wrap;html=1;" vertex="1" parent="-7Dlyxa-SyO5wOfK9ul6-33">
          <mxGeometry y="120" width="190" height="30" as="geometry" />
        </mxCell>
        <mxCell id="-7Dlyxa-SyO5wOfK9ul6-47" value="comunes" style="swimlane;fontStyle=0;childLayout=stackLayout;horizontal=1;startSize=30;horizontalStack=0;resizeParent=1;resizeParentMax=0;resizeLast=0;collapsible=1;marginBottom=0;whiteSpace=wrap;html=1;" vertex="1" parent="1">
          <mxGeometry x="-540" y="-395" width="190" height="120" as="geometry" />
        </mxCell>
        <mxCell id="-7Dlyxa-SyO5wOfK9ul6-48" value="id (PK)" style="text;strokeColor=none;fillColor=none;align=left;verticalAlign=middle;spacingLeft=4;spacingRight=4;overflow=hidden;points=[[0,0.5],[1,0.5]];portConstraint=eastwest;rotatable=0;whiteSpace=wrap;html=1;" vertex="1" parent="-7Dlyxa-SyO5wOfK9ul6-47">
          <mxGeometry y="30" width="190" height="30" as="geometry" />
        </mxCell>
        <mxCell id="-7Dlyxa-SyO5wOfK9ul6-49" value="name varchar(100)" style="text;strokeColor=none;fillColor=none;align=left;verticalAlign=middle;spacingLeft=4;spacingRight=4;overflow=hidden;points=[[0,0.5],[1,0.5]];portConstraint=eastwest;rotatable=0;whiteSpace=wrap;html=1;" vertex="1" parent="-7Dlyxa-SyO5wOfK9ul6-47">
          <mxGeometry y="60" width="190" height="30" as="geometry" />
        </mxCell>
        <mxCell id="-7Dlyxa-SyO5wOfK9ul6-51" value="regions_id (FK)" style="text;strokeColor=none;fillColor=none;align=left;verticalAlign=middle;spacingLeft=4;spacingRight=4;overflow=hidden;points=[[0,0.5],[1,0.5]];portConstraint=eastwest;rotatable=0;whiteSpace=wrap;html=1;" vertex="1" parent="-7Dlyxa-SyO5wOfK9ul6-47">
          <mxGeometry y="90" width="190" height="30" as="geometry" />
        </mxCell>
        <mxCell id="-7Dlyxa-SyO5wOfK9ul6-57" value="regions" style="swimlane;fontStyle=0;childLayout=stackLayout;horizontal=1;startSize=30;horizontalStack=0;resizeParent=1;resizeParentMax=0;resizeLast=0;collapsible=1;marginBottom=0;whiteSpace=wrap;html=1;" vertex="1" parent="1">
          <mxGeometry x="-540" y="-575" width="190" height="120" as="geometry" />
        </mxCell>
        <mxCell id="-7Dlyxa-SyO5wOfK9ul6-58" value="id (PK)" style="text;strokeColor=none;fillColor=none;align=left;verticalAlign=middle;spacingLeft=4;spacingRight=4;overflow=hidden;points=[[0,0.5],[1,0.5]];portConstraint=eastwest;rotatable=0;whiteSpace=wrap;html=1;" vertex="1" parent="-7Dlyxa-SyO5wOfK9ul6-57">
          <mxGeometry y="30" width="190" height="30" as="geometry" />
        </mxCell>
        <mxCell id="-7Dlyxa-SyO5wOfK9ul6-59" value="name varchar(100)" style="text;strokeColor=none;fillColor=none;align=left;verticalAlign=middle;spacingLeft=4;spacingRight=4;overflow=hidden;points=[[0,0.5],[1,0.5]];portConstraint=eastwest;rotatable=0;whiteSpace=wrap;html=1;" vertex="1" parent="-7Dlyxa-SyO5wOfK9ul6-57">
          <mxGeometry y="60" width="190" height="30" as="geometry" />
        </mxCell>
        <mxCell id="9lr_hnO2CK76h-o_0CbF-12" style="text;strokeColor=none;fillColor=none;align=left;verticalAlign=middle;spacingLeft=4;spacingRight=4;overflow=hidden;points=[[0,0.5],[1,0.5]];portConstraint=eastwest;rotatable=0;whiteSpace=wrap;html=1;" vertex="1" parent="-7Dlyxa-SyO5wOfK9ul6-57">
          <mxGeometry y="90" width="190" height="30" as="geometry" />
        </mxCell>
        <mxCell id="-7Dlyxa-SyO5wOfK9ul6-61" value="fire_operations" style="swimlane;fontStyle=0;childLayout=stackLayout;horizontal=1;startSize=30;horizontalStack=0;resizeParent=1;resizeParentMax=0;resizeLast=0;collapsible=1;marginBottom=0;whiteSpace=wrap;html=1;" vertex="1" parent="1">
          <mxGeometry x="350" y="-760" width="190" height="180" as="geometry" />
        </mxCell>
        <mxCell id="-7Dlyxa-SyO5wOfK9ul6-62" value="id (PK)" style="text;strokeColor=none;fillColor=none;align=left;verticalAlign=middle;spacingLeft=4;spacingRight=4;overflow=hidden;points=[[0,0.5],[1,0.5]];portConstraint=eastwest;rotatable=0;whiteSpace=wrap;html=1;" vertex="1" parent="-7Dlyxa-SyO5wOfK9ul6-61">
          <mxGeometry y="30" width="190" height="30" as="geometry" />
        </mxCell>
        <mxCell id="-7Dlyxa-SyO5wOfK9ul6-64" value="users_id" style="text;strokeColor=none;fillColor=none;align=left;verticalAlign=middle;spacingLeft=4;spacingRight=4;overflow=hidden;points=[[0,0.5],[1,0.5]];portConstraint=eastwest;rotatable=0;whiteSpace=wrap;html=1;" vertex="1" parent="-7Dlyxa-SyO5wOfK9ul6-61">
          <mxGeometry y="60" width="190" height="30" as="geometry" />
        </mxCell>
        <mxCell id="zkKq8MAxTLhn3J4NviJU-14" value="fire_trucks_id (FK)" style="text;strokeColor=none;fillColor=none;align=left;verticalAlign=middle;spacingLeft=4;spacingRight=4;overflow=hidden;points=[[0,0.5],[1,0.5]];portConstraint=eastwest;rotatable=0;whiteSpace=wrap;html=1;" vertex="1" parent="-7Dlyxa-SyO5wOfK9ul6-61">
          <mxGeometry y="90" width="190" height="30" as="geometry" />
        </mxCell>
        <mxCell id="-7Dlyxa-SyO5wOfK9ul6-65" value="start_date&amp;nbsp;timestamp()" style="text;strokeColor=none;fillColor=none;align=left;verticalAlign=middle;spacingLeft=4;spacingRight=4;overflow=hidden;points=[[0,0.5],[1,0.5]];portConstraint=eastwest;rotatable=0;whiteSpace=wrap;html=1;" vertex="1" parent="-7Dlyxa-SyO5wOfK9ul6-61">
          <mxGeometry y="120" width="190" height="30" as="geometry" />
        </mxCell>
        <mxCell id="-7Dlyxa-SyO5wOfK9ul6-66" value="end_date&amp;nbsp;timestamp()" style="text;strokeColor=none;fillColor=none;align=left;verticalAlign=middle;spacingLeft=4;spacingRight=4;overflow=hidden;points=[[0,0.5],[1,0.5]];portConstraint=eastwest;rotatable=0;whiteSpace=wrap;html=1;" vertex="1" parent="-7Dlyxa-SyO5wOfK9ul6-61">
          <mxGeometry y="150" width="190" height="30" as="geometry" />
        </mxCell>
        <mxCell id="-7Dlyxa-SyO5wOfK9ul6-67" value="inventory_metadata" style="swimlane;fontStyle=0;childLayout=stackLayout;horizontal=1;startSize=30;horizontalStack=0;resizeParent=1;resizeParentMax=0;resizeLast=0;collapsible=1;marginBottom=0;whiteSpace=wrap;html=1;" vertex="1" parent="1">
          <mxGeometry x="827" y="-760" width="220" height="270" as="geometry" />
        </mxCell>
        <mxCell id="-7Dlyxa-SyO5wOfK9ul6-68" value="id (PK)" style="text;strokeColor=none;fillColor=none;align=left;verticalAlign=middle;spacingLeft=4;spacingRight=4;overflow=hidden;points=[[0,0.5],[1,0.5]];portConstraint=eastwest;rotatable=0;whiteSpace=wrap;html=1;" vertex="1" parent="-7Dlyxa-SyO5wOfK9ul6-67">
          <mxGeometry y="30" width="220" height="30" as="geometry" />
        </mxCell>
        <mxCell id="xeIRmsz21AE9KC3vCUl4-1" value="name varchar(100)" style="text;strokeColor=none;fillColor=none;align=left;verticalAlign=middle;spacingLeft=4;spacingRight=4;overflow=hidden;points=[[0,0.5],[1,0.5]];portConstraint=eastwest;rotatable=0;whiteSpace=wrap;html=1;" vertex="1" parent="-7Dlyxa-SyO5wOfK9ul6-67">
          <mxGeometry y="60" width="220" height="30" as="geometry" />
        </mxCell>
        <mxCell id="-7Dlyxa-SyO5wOfK9ul6-70" value="description text() NULL" style="text;strokeColor=none;fillColor=none;align=left;verticalAlign=middle;spacingLeft=4;spacingRight=4;overflow=hidden;points=[[0,0.5],[1,0.5]];portConstraint=eastwest;rotatable=0;whiteSpace=wrap;html=1;" vertex="1" parent="-7Dlyxa-SyO5wOfK9ul6-67">
          <mxGeometry y="90" width="220" height="30" as="geometry" />
        </mxCell>
        <mxCell id="xeIRmsz21AE9KC3vCUl4-2" value="price int() NULL" style="text;strokeColor=none;fillColor=none;align=left;verticalAlign=middle;spacingLeft=4;spacingRight=4;overflow=hidden;points=[[0,0.5],[1,0.5]];portConstraint=eastwest;rotatable=0;whiteSpace=wrap;html=1;" vertex="1" parent="-7Dlyxa-SyO5wOfK9ul6-67">
          <mxGeometry y="120" width="220" height="30" as="geometry" />
        </mxCell>
        <mxCell id="xeIRmsz21AE9KC3vCUl4-3" value="brand (FK) NULL" style="text;strokeColor=none;fillColor=none;align=left;verticalAlign=middle;spacingLeft=4;spacingRight=4;overflow=hidden;points=[[0,0.5],[1,0.5]];portConstraint=eastwest;rotatable=0;whiteSpace=wrap;html=1;" vertex="1" parent="-7Dlyxa-SyO5wOfK9ul6-67">
          <mxGeometry y="150" width="220" height="30" as="geometry" />
        </mxCell>
        <mxCell id="-7Dlyxa-SyO5wOfK9ul6-77" value="model (FK) NULL" style="text;strokeColor=none;fillColor=none;align=left;verticalAlign=middle;spacingLeft=4;spacingRight=4;overflow=hidden;points=[[0,0.5],[1,0.5]];portConstraint=eastwest;rotatable=0;whiteSpace=wrap;html=1;" vertex="1" parent="-7Dlyxa-SyO5wOfK9ul6-67">
          <mxGeometry y="180" width="220" height="30" as="geometry" />
        </mxCell>
        <mxCell id="xeIRmsz21AE9KC3vCUl4-51" value="image varchar() NULL" style="text;strokeColor=none;fillColor=none;align=left;verticalAlign=middle;spacingLeft=4;spacingRight=4;overflow=hidden;points=[[0,0.5],[1,0.5]];portConstraint=eastwest;rotatable=0;whiteSpace=wrap;html=1;" vertex="1" parent="-7Dlyxa-SyO5wOfK9ul6-67">
          <mxGeometry y="210" width="220" height="30" as="geometry" />
        </mxCell>
        <mxCell id="a1d7VN123PgCirPlM15Y-10" value="inventory_id (FK)" style="text;strokeColor=none;fillColor=none;align=left;verticalAlign=middle;spacingLeft=4;spacingRight=4;overflow=hidden;points=[[0,0.5],[1,0.5]];portConstraint=eastwest;rotatable=0;whiteSpace=wrap;html=1;" vertex="1" parent="-7Dlyxa-SyO5wOfK9ul6-67">
          <mxGeometry y="240" width="220" height="30" as="geometry" />
        </mxCell>
        <mxCell id="9lr_hnO2CK76h-o_0CbF-1" value="&lt;h1 style=&quot;font-size: 18px;&quot;&gt;Metadata de Usuarios&lt;br&gt;&lt;/h1&gt;Tabla para registrar informaciÃ³n adicional de los usuarios&lt;br&gt;&lt;ol&gt;&lt;li&gt;ID&lt;/li&gt;&lt;li&gt;RUT&lt;br&gt;&lt;/li&gt;&lt;li&gt;Rol de usuario&lt;br&gt;&lt;/li&gt;&lt;li&gt;EstaciÃ³n&lt;/li&gt;&lt;li&gt;Usuario correspondiente&lt;br&gt;&lt;/li&gt;&lt;/ol&gt;" style="text;html=1;strokeColor=none;fillColor=none;spacing=5;spacingTop=-20;whiteSpace=wrap;overflow=hidden;rounded=0;" vertex="1" parent="1">
          <mxGeometry x="-350" y="-20" width="180" height="210" as="geometry" />
        </mxCell>
        <mxCell id="9lr_hnO2CK76h-o_0CbF-3" value="&lt;h1 style=&quot;font-size: 18px;&quot;&gt;Estaciones de bomberos&lt;br&gt;&lt;/h1&gt;Tabla para registrar estaciones de bomberos&lt;br&gt;&lt;ol&gt;&lt;li&gt;ID&lt;/li&gt;&lt;li&gt;nombre estaciÃ³n&lt;br&gt;&lt;/li&gt;&lt;li&gt;direccion&lt;/li&gt;&lt;li&gt;comuna&lt;br&gt;&lt;/li&gt;&lt;/ol&gt;" style="text;html=1;strokeColor=none;fillColor=none;spacing=5;spacingTop=-20;whiteSpace=wrap;overflow=hidden;rounded=0;" vertex="1" parent="1">
          <mxGeometry x="-350" y="-220" width="180" height="160" as="geometry" />
        </mxCell>
        <mxCell id="9lr_hnO2CK76h-o_0CbF-4" value="&lt;h1&gt;&lt;font style=&quot;font-size: 18px;&quot;&gt;Regiones&lt;/font&gt;&lt;br&gt;&lt;/h1&gt;&lt;p&gt;Tabla para registrar regiones del paÃ­s. Pensada para agilizar la creaciÃ³n de estaciones (y usuarios, posiblemente)&lt;br&gt;&lt;/p&gt;&lt;ol&gt;&lt;li&gt;ID&lt;/li&gt;&lt;li&gt;nombre regiÃ³n&lt;br&gt;&lt;/li&gt;&lt;/ol&gt;" style="text;html=1;strokeColor=none;fillColor=none;spacing=5;spacingTop=-20;whiteSpace=wrap;overflow=hidden;rounded=0;" vertex="1" parent="1">
          <mxGeometry x="-350" y="-585" width="190" height="150" as="geometry" />
        </mxCell>
        <mxCell id="9lr_hnO2CK76h-o_0CbF-5" value="&lt;h1&gt;&lt;font style=&quot;font-size: 18px;&quot;&gt;Comunas&lt;/font&gt;&lt;br&gt;&lt;/h1&gt;&lt;p&gt;Tabla para registrar comunas del paÃ­s. Pensada para agilizar la creaciÃ³n de estaciones (y usuarios, posiblemente)&lt;br&gt;&lt;/p&gt;&lt;ol&gt;&lt;li&gt;ID&lt;/li&gt;&lt;li&gt;nombre comuna&lt;/li&gt;&lt;li&gt;regiÃ³n correspondiente&lt;br&gt;&lt;/li&gt;&lt;/ol&gt;" style="text;html=1;strokeColor=none;fillColor=none;spacing=5;spacingTop=-20;whiteSpace=wrap;overflow=hidden;rounded=0;" vertex="1" parent="1">
          <mxGeometry x="-350" y="-405" width="190" height="165" as="geometry" />
        </mxCell>
        <mxCell id="9lr_hnO2CK76h-o_0CbF-6" value="&lt;h1&gt;&lt;font style=&quot;font-size: 18px;&quot;&gt;Roles de usuario&lt;/font&gt;&lt;br&gt;&lt;/h1&gt;&lt;p&gt;Tabla para registrar los roles de usuario del sistema&lt;br&gt;&lt;/p&gt;&lt;ol&gt;&lt;li&gt;ID&lt;/li&gt;&lt;li&gt;nombre rol&lt;br&gt;&lt;/li&gt;&lt;/ol&gt;" style="text;html=1;strokeColor=none;fillColor=none;spacing=5;spacingTop=-20;whiteSpace=wrap;overflow=hidden;rounded=0;" vertex="1" parent="1">
          <mxGeometry x="-350" y="-760" width="190" height="150" as="geometry" />
        </mxCell>
        <mxCell id="9lr_hnO2CK76h-o_0CbF-13" value="&lt;h1 style=&quot;font-size: 18px;&quot;&gt;Unidades de bomberos&lt;br&gt;&lt;/h1&gt;Tabla para registrar carros de bomberos&lt;br&gt;&lt;ol&gt;&lt;li&gt;ID&lt;/li&gt;&lt;li&gt;nombre de fantasÃ­a&lt;/li&gt;&lt;li&gt;descripciÃ³n&lt;br&gt;&lt;/li&gt;&lt;li&gt;patente vehÃ­culo&lt;/li&gt;&lt;li&gt;modelo vehÃ­culo&lt;/li&gt;&lt;li&gt;nÃºmero de chasis&lt;/li&gt;&lt;li&gt;aÃ±o&lt;/li&gt;&lt;li&gt;tipo de unidad&lt;br&gt;&lt;/li&gt;&lt;li&gt;estaciÃ³n perteneciente&lt;/li&gt;&lt;li&gt;imagen&lt;/li&gt;&lt;li&gt;fecha de registro&lt;br&gt;&lt;/li&gt;&lt;/ol&gt;" style="text;html=1;strokeColor=none;fillColor=none;spacing=5;spacingTop=-20;whiteSpace=wrap;overflow=hidden;rounded=0;" vertex="1" parent="1">
          <mxGeometry x="90" y="-385" width="180" height="270" as="geometry" />
        </mxCell>
        <mxCell id="9lr_hnO2CK76h-o_0CbF-20" value="&lt;h1&gt;&lt;font style=&quot;font-size: 18px;&quot;&gt;Emergencias&lt;/font&gt;&lt;br&gt;&lt;/h1&gt;&lt;p&gt;Tabla para registrar las operaciones / llamados de emergencia. Pensada para registrar una vez terminada la operaciÃ³n&lt;br&gt;&lt;/p&gt;&lt;ol&gt;&lt;li&gt;ID&lt;/li&gt;&lt;li&gt;usuario autor&lt;/li&gt;&lt;li&gt;camiÃ³n correspondiente&lt;br&gt;&lt;/li&gt;&lt;li&gt;fecha y hora de inicio&lt;/li&gt;&lt;li&gt;fecha y hora de tÃ©rmino&lt;br&gt;&lt;/li&gt;&lt;/ol&gt;" style="text;html=1;strokeColor=none;fillColor=none;spacing=5;spacingTop=-20;whiteSpace=wrap;overflow=hidden;rounded=0;" vertex="1" parent="1">
          <mxGeometry x="540" y="-770" width="180" height="230" as="geometry" />
        </mxCell>
        <mxCell id="9lr_hnO2CK76h-o_0CbF-22" value="categories" style="swimlane;fontStyle=0;childLayout=stackLayout;horizontal=1;startSize=30;horizontalStack=0;resizeParent=1;resizeParentMax=0;resizeLast=0;collapsible=1;marginBottom=0;whiteSpace=wrap;html=1;" vertex="1" parent="1">
          <mxGeometry x="350" y="-495" width="190" height="120" as="geometry" />
        </mxCell>
        <mxCell id="9lr_hnO2CK76h-o_0CbF-23" value="id (PK)" style="text;strokeColor=none;fillColor=none;align=left;verticalAlign=middle;spacingLeft=4;spacingRight=4;overflow=hidden;points=[[0,0.5],[1,0.5]];portConstraint=eastwest;rotatable=0;whiteSpace=wrap;html=1;" vertex="1" parent="9lr_hnO2CK76h-o_0CbF-22">
          <mxGeometry y="30" width="190" height="30" as="geometry" />
        </mxCell>
        <mxCell id="9lr_hnO2CK76h-o_0CbF-24" value="name varchar(100)" style="text;strokeColor=none;fillColor=none;align=left;verticalAlign=middle;spacingLeft=4;spacingRight=4;overflow=hidden;points=[[0,0.5],[1,0.5]];portConstraint=eastwest;rotatable=0;whiteSpace=wrap;html=1;" vertex="1" parent="9lr_hnO2CK76h-o_0CbF-22">
          <mxGeometry y="60" width="190" height="30" as="geometry" />
        </mxCell>
        <mxCell id="9lr_hnO2CK76h-o_0CbF-25" value="description text() NULL" style="text;strokeColor=none;fillColor=none;align=left;verticalAlign=middle;spacingLeft=4;spacingRight=4;overflow=hidden;points=[[0,0.5],[1,0.5]];portConstraint=eastwest;rotatable=0;whiteSpace=wrap;html=1;" vertex="1" parent="9lr_hnO2CK76h-o_0CbF-22">
          <mxGeometry y="90" width="190" height="30" as="geometry" />
        </mxCell>
        <mxCell id="9lr_hnO2CK76h-o_0CbF-32" value="&lt;h1&gt;&lt;font style=&quot;font-size: 18px;&quot;&gt;CategorÃ­as&lt;/font&gt;&lt;br&gt;&lt;/h1&gt;&lt;p&gt;Tabla para registrar las categorÃ­as de productos disponibles&lt;br&gt;&lt;/p&gt;&lt;ol&gt;&lt;li&gt;ID&lt;/li&gt;&lt;li&gt;nombre&lt;br&gt;&lt;/li&gt;&lt;li&gt;descripciÃ³n&lt;br&gt;&lt;/li&gt;&lt;/ol&gt;" style="text;html=1;strokeColor=none;fillColor=none;spacing=5;spacingTop=-20;whiteSpace=wrap;overflow=hidden;rounded=0;" vertex="1" parent="1">
          <mxGeometry x="540" y="-505" width="180" height="150" as="geometry" />
        </mxCell>
        <mxCell id="xeIRmsz21AE9KC3vCUl4-5" value="inventory" style="swimlane;fontStyle=0;childLayout=stackLayout;horizontal=1;startSize=30;horizontalStack=0;resizeParent=1;resizeParentMax=0;resizeLast=0;collapsible=1;marginBottom=0;whiteSpace=wrap;html=1;" vertex="1" parent="1">
          <mxGeometry x="350" y="-40" width="220" height="480" as="geometry" />
        </mxCell>
        <mxCell id="xeIRmsz21AE9KC3vCUl4-6" value="id (PK)" style="text;strokeColor=none;fillColor=none;align=left;verticalAlign=middle;spacingLeft=4;spacingRight=4;overflow=hidden;points=[[0,0.5],[1,0.5]];portConstraint=eastwest;rotatable=0;whiteSpace=wrap;html=1;" vertex="1" parent="xeIRmsz21AE9KC3vCUl4-5">
          <mxGeometry y="30" width="220" height="30" as="geometry" />
        </mxCell>
        <mxCell id="VTMMX1xbxROzxiq9HJ-e-12" value="sku int(13) NULL" style="text;strokeColor=none;fillColor=none;align=left;verticalAlign=middle;spacingLeft=4;spacingRight=4;overflow=hidden;points=[[0,0.5],[1,0.5]];portConstraint=eastwest;rotatable=0;whiteSpace=wrap;html=1;" vertex="1" parent="xeIRmsz21AE9KC3vCUl4-5">
          <mxGeometry y="60" width="220" height="30" as="geometry" />
        </mxCell>
        <mxCell id="xeIRmsz21AE9KC3vCUl4-7" value="categories_id (FK)" style="text;strokeColor=none;fillColor=none;align=left;verticalAlign=middle;spacingLeft=4;spacingRight=4;overflow=hidden;points=[[0,0.5],[1,0.5]];portConstraint=eastwest;rotatable=0;whiteSpace=wrap;html=1;" vertex="1" parent="xeIRmsz21AE9KC3vCUl4-5">
          <mxGeometry y="90" width="220" height="30" as="geometry" />
        </mxCell>
        <mxCell id="xeIRmsz21AE9KC3vCUl4-8" value="sub_categories_id (FK)" style="text;strokeColor=none;fillColor=none;align=left;verticalAlign=middle;spacingLeft=4;spacingRight=4;overflow=hidden;points=[[0,0.5],[1,0.5]];portConstraint=eastwest;rotatable=0;whiteSpace=wrap;html=1;" vertex="1" parent="xeIRmsz21AE9KC3vCUl4-5">
          <mxGeometry y="120" width="220" height="30" as="geometry" />
        </mxCell>
        <mxCell id="VTMMX1xbxROzxiq9HJ-e-13" value="compartments_id (FK)" style="text;strokeColor=none;fillColor=none;align=left;verticalAlign=middle;spacingLeft=4;spacingRight=4;overflow=hidden;points=[[0,0.5],[1,0.5]];portConstraint=eastwest;rotatable=0;whiteSpace=wrap;html=1;" vertex="1" parent="xeIRmsz21AE9KC3vCUl4-5">
          <mxGeometry y="150" width="220" height="30" as="geometry" />
        </mxCell>
        <mxCell id="VTMMX1xbxROzxiq9HJ-e-14" value="status_id (FK)" style="text;strokeColor=none;fillColor=none;align=left;verticalAlign=middle;spacingLeft=4;spacingRight=4;overflow=hidden;points=[[0,0.5],[1,0.5]];portConstraint=eastwest;rotatable=0;whiteSpace=wrap;html=1;" vertex="1" parent="xeIRmsz21AE9KC3vCUl4-5">
          <mxGeometry y="180" width="220" height="30" as="geometry" />
        </mxCell>
        <mxCell id="VTMMX1xbxROzxiq9HJ-e-15" value="expire_at date() NULL" style="text;strokeColor=none;fillColor=none;align=left;verticalAlign=middle;spacingLeft=4;spacingRight=4;overflow=hidden;points=[[0,0.5],[1,0.5]];portConstraint=eastwest;rotatable=0;whiteSpace=wrap;html=1;" vertex="1" parent="xeIRmsz21AE9KC3vCUl4-5">
          <mxGeometry y="210" width="220" height="30" as="geometry" />
        </mxCell>
        <mxCell id="VTMMX1xbxROzxiq9HJ-e-16" value="expire_notification NULL" style="text;strokeColor=none;fillColor=none;align=left;verticalAlign=middle;spacingLeft=4;spacingRight=4;overflow=hidden;points=[[0,0.5],[1,0.5]];portConstraint=eastwest;rotatable=0;whiteSpace=wrap;html=1;" vertex="1" parent="xeIRmsz21AE9KC3vCUl4-5">
          <mxGeometry y="240" width="220" height="30" as="geometry" />
        </mxCell>
        <mxCell id="VTMMX1xbxROzxiq9HJ-e-19" value="maintenance_hour int() NULL" style="text;strokeColor=none;fillColor=none;align=left;verticalAlign=middle;spacingLeft=4;spacingRight=4;overflow=hidden;points=[[0,0.5],[1,0.5]];portConstraint=eastwest;rotatable=0;whiteSpace=wrap;html=1;" vertex="1" parent="xeIRmsz21AE9KC3vCUl4-5">
          <mxGeometry y="270" width="220" height="30" as="geometry" />
        </mxCell>
        <mxCell id="VTMMX1xbxROzxiq9HJ-e-21" value="usage_hours int() NULL" style="text;strokeColor=none;fillColor=none;align=left;verticalAlign=middle;spacingLeft=4;spacingRight=4;overflow=hidden;points=[[0,0.5],[1,0.5]];portConstraint=eastwest;rotatable=0;whiteSpace=wrap;html=1;" vertex="1" parent="xeIRmsz21AE9KC3vCUl4-5">
          <mxGeometry y="300" width="220" height="30" as="geometry" />
        </mxCell>
        <mxCell id="VTMMX1xbxROzxiq9HJ-e-18" value="total_usage_hours int() NULL" style="text;strokeColor=none;fillColor=none;align=left;verticalAlign=middle;spacingLeft=4;spacingRight=4;overflow=hidden;points=[[0,0.5],[1,0.5]];portConstraint=eastwest;rotatable=0;whiteSpace=wrap;html=1;" vertex="1" parent="xeIRmsz21AE9KC3vCUl4-5">
          <mxGeometry y="330" width="220" height="30" as="geometry" />
        </mxCell>
        <mxCell id="VTMMX1xbxROzxiq9HJ-e-17" value="container_id (FK) NULL" style="text;strokeColor=none;fillColor=none;align=left;verticalAlign=middle;spacingLeft=4;spacingRight=4;overflow=hidden;points=[[0,0.5],[1,0.5]];portConstraint=eastwest;rotatable=0;whiteSpace=wrap;html=1;" vertex="1" parent="xeIRmsz21AE9KC3vCUl4-5">
          <mxGeometry y="360" width="220" height="30" as="geometry" />
        </mxCell>
        <mxCell id="VTMMX1xbxROzxiq9HJ-e-25" value="maintenance_programs_id (FK) NULL" style="text;strokeColor=none;fillColor=none;align=left;verticalAlign=middle;spacingLeft=4;spacingRight=4;overflow=hidden;points=[[0,0.5],[1,0.5]];portConstraint=eastwest;rotatable=0;whiteSpace=wrap;html=1;" vertex="1" parent="xeIRmsz21AE9KC3vCUl4-5">
          <mxGeometry y="390" width="220" height="30" as="geometry" />
        </mxCell>
        <mxCell id="VTMMX1xbxROzxiq9HJ-e-22" value="last_maintenance date() NULL" style="text;strokeColor=none;fillColor=none;align=left;verticalAlign=middle;spacingLeft=4;spacingRight=4;overflow=hidden;points=[[0,0.5],[1,0.5]];portConstraint=eastwest;rotatable=0;whiteSpace=wrap;html=1;" vertex="1" parent="xeIRmsz21AE9KC3vCUl4-5">
          <mxGeometry y="420" width="220" height="30" as="geometry" />
        </mxCell>
        <mxCell id="xeIRmsz21AE9KC3vCUl4-20" value="created_at datetime()" style="text;strokeColor=none;fillColor=none;align=left;verticalAlign=middle;spacingLeft=4;spacingRight=4;overflow=hidden;points=[[0,0.5],[1,0.5]];portConstraint=eastwest;rotatable=0;whiteSpace=wrap;html=1;" vertex="1" parent="xeIRmsz21AE9KC3vCUl4-5">
          <mxGeometry y="450" width="220" height="30" as="geometry" />
        </mxCell>
        <mxCell id="xeIRmsz21AE9KC3vCUl4-18" value="&lt;h1&gt;&lt;font style=&quot;font-size: 18px;&quot;&gt;Inventario - Metadatos&lt;/font&gt;&lt;br&gt;&lt;/h1&gt;&lt;p&gt;Tabla para registrar los metadatos de los insumos. Destinada a la informaciÃ³n comercial o propia del producto&lt;br&gt;&lt;/p&gt;&lt;ol&gt;&lt;li&gt;ID&lt;/li&gt;&lt;li&gt;nombre / tÃ­tulo de fantasÃ­a&lt;br&gt;&lt;/li&gt;&lt;li&gt;descripciÃ³n&lt;/li&gt;&lt;li&gt;precio&lt;/li&gt;&lt;li&gt;marca&lt;/li&gt;&lt;li&gt;modelo&lt;/li&gt;&lt;li&gt;imagen&lt;/li&gt;&lt;li&gt;insumo correspondiente&lt;br&gt;&lt;/li&gt;&lt;/ol&gt;" style="text;html=1;strokeColor=none;fillColor=none;spacing=5;spacingTop=-20;whiteSpace=wrap;overflow=hidden;rounded=0;" vertex="1" parent="1">
          <mxGeometry x="1047" y="-770" width="210" height="280" as="geometry" />
        </mxCell>
        <mxCell id="xeIRmsz21AE9KC3vCUl4-21" value="&lt;h1&gt;&lt;font style=&quot;font-size: 18px;&quot;&gt;Inventario&lt;/font&gt;&lt;br&gt;&lt;/h1&gt;&lt;p&gt;Tabla para registrar informaciÃ³n de los insumos orientada a la gestiÃ³n. Cada producto creado genera registros. Uno en &quot;inventory_metadata&quot; y otro en &quot;inventory&quot;&lt;br&gt;&lt;/p&gt;&lt;ol&gt;&lt;li&gt;ID&lt;/li&gt;&lt;li&gt;CÃ³digo de barras&lt;br&gt;&lt;/li&gt;&lt;li&gt;categorÃ­a correspondiente&lt;/li&gt;&lt;li&gt;Tipo correspondiente&lt;/li&gt;&lt;li&gt;Gaveta correspondiente&lt;/li&gt;&lt;li&gt;Estado&lt;br&gt;&lt;/li&gt;&lt;li&gt;Fecha de expiraciÃ³n si corresponde&lt;br&gt;&lt;/li&gt;&lt;li&gt;CuÃ¡ndo notificar fecha exp.&lt;/li&gt;&lt;li&gt;horas para mantenimiento si corresponde&lt;br&gt;&lt;/li&gt;&lt;li&gt;horas de uso&lt;br&gt;&lt;/li&gt;&lt;li&gt;horas totales de uso&lt;br&gt;&lt;/li&gt;&lt;li&gt;Insumo contenedor si corresponde&lt;/li&gt;&lt;li&gt;programa de mantenimiento si corresponde&lt;/li&gt;&lt;li&gt;fecha de Ãºltima mantenciÃ³n&lt;br&gt;&lt;/li&gt;&lt;li&gt;fecha de creaciÃ³n de registo&lt;br&gt;&lt;/li&gt;&lt;/ol&gt;" style="text;html=1;strokeColor=none;fillColor=none;spacing=5;spacingTop=-20;whiteSpace=wrap;overflow=hidden;rounded=0;" vertex="1" parent="1">
          <mxGeometry x="570" y="-40" width="250" height="380" as="geometry" />
        </mxCell>
        <mxCell id="zkKq8MAxTLhn3J4NviJU-1" value="compartments" style="swimlane;fontStyle=0;childLayout=stackLayout;horizontal=1;startSize=30;horizontalStack=0;resizeParent=1;resizeParentMax=0;resizeLast=0;collapsible=1;marginBottom=0;whiteSpace=wrap;html=1;" vertex="1" parent="1">
          <mxGeometry x="-80" y="5" width="190" height="180" as="geometry" />
        </mxCell>
        <mxCell id="zkKq8MAxTLhn3J4NviJU-2" value="id (PK)" style="text;strokeColor=none;fillColor=none;align=left;verticalAlign=middle;spacingLeft=4;spacingRight=4;overflow=hidden;points=[[0,0.5],[1,0.5]];portConstraint=eastwest;rotatable=0;whiteSpace=wrap;html=1;" vertex="1" parent="zkKq8MAxTLhn3J4NviJU-1">
          <mxGeometry y="30" width="190" height="30" as="geometry" />
        </mxCell>
        <mxCell id="zkKq8MAxTLhn3J4NviJU-3" value="name&amp;nbsp; varchar(100)" style="text;strokeColor=none;fillColor=none;align=left;verticalAlign=middle;spacingLeft=4;spacingRight=4;overflow=hidden;points=[[0,0.5],[1,0.5]];portConstraint=eastwest;rotatable=0;whiteSpace=wrap;html=1;" vertex="1" parent="zkKq8MAxTLhn3J4NviJU-1">
          <mxGeometry y="60" width="190" height="30" as="geometry" />
        </mxCell>
        <mxCell id="zkKq8MAxTLhn3J4NviJU-4" value="description text() NULL" style="text;strokeColor=none;fillColor=none;align=left;verticalAlign=middle;spacingLeft=4;spacingRight=4;overflow=hidden;points=[[0,0.5],[1,0.5]];portConstraint=eastwest;rotatable=0;whiteSpace=wrap;html=1;" vertex="1" parent="zkKq8MAxTLhn3J4NviJU-1">
          <mxGeometry y="90" width="190" height="30" as="geometry" />
        </mxCell>
        <mxCell id="vesqRSIxuu1ZiZg7kVAm-5" value="quantity int() NULL" style="text;strokeColor=none;fillColor=none;align=left;verticalAlign=middle;spacingLeft=4;spacingRight=4;overflow=hidden;points=[[0,0.5],[1,0.5]];portConstraint=eastwest;rotatable=0;whiteSpace=wrap;html=1;" vertex="1" parent="zkKq8MAxTLhn3J4NviJU-1">
          <mxGeometry y="120" width="190" height="30" as="geometry" />
        </mxCell>
        <mxCell id="zkKq8MAxTLhn3J4NviJU-5" value="fire_trucks_id (FK)" style="text;strokeColor=none;fillColor=none;align=left;verticalAlign=middle;spacingLeft=4;spacingRight=4;overflow=hidden;points=[[0,0.5],[1,0.5]];portConstraint=eastwest;rotatable=0;whiteSpace=wrap;html=1;" vertex="1" parent="zkKq8MAxTLhn3J4NviJU-1">
          <mxGeometry y="150" width="190" height="30" as="geometry" />
        </mxCell>
        <mxCell id="zkKq8MAxTLhn3J4NviJU-7" value="&lt;h1&gt;&lt;font style=&quot;font-size: 18px;&quot;&gt;Gabetas&lt;/font&gt;&lt;br&gt;&lt;/h1&gt;&lt;p&gt;Registrar las gabetas donde se ubicarÃ¡n los insumos dentro de las unidades&lt;br&gt;&lt;/p&gt;&lt;ol&gt;&lt;li&gt;ID&lt;/li&gt;&lt;li&gt;nombre&lt;/li&gt;&lt;li&gt;descripciÃ³n&lt;/li&gt;&lt;li&gt;cantidad esperada&lt;br&gt;&lt;/li&gt;&lt;li&gt;camiÃ³n correspondiente&lt;br&gt;&lt;/li&gt;&lt;/ol&gt;" style="text;html=1;strokeColor=none;fillColor=none;spacing=5;spacingTop=-20;whiteSpace=wrap;overflow=hidden;rounded=0;" vertex="1" parent="1">
          <mxGeometry x="110" y="-10" width="180" height="200" as="geometry" />
        </mxCell>
        <mxCell id="zkKq8MAxTLhn3J4NviJU-9" value="type_fire_trucks" style="swimlane;fontStyle=0;childLayout=stackLayout;horizontal=1;startSize=30;horizontalStack=0;resizeParent=1;resizeParentMax=0;resizeLast=0;collapsible=1;marginBottom=0;whiteSpace=wrap;html=1;" vertex="1" parent="1">
          <mxGeometry x="-80" y="-560" width="190" height="120" as="geometry" />
        </mxCell>
        <mxCell id="zkKq8MAxTLhn3J4NviJU-10" value="id (PK)" style="text;strokeColor=none;fillColor=none;align=left;verticalAlign=middle;spacingLeft=4;spacingRight=4;overflow=hidden;points=[[0,0.5],[1,0.5]];portConstraint=eastwest;rotatable=0;whiteSpace=wrap;html=1;" vertex="1" parent="zkKq8MAxTLhn3J4NviJU-9">
          <mxGeometry y="30" width="190" height="30" as="geometry" />
        </mxCell>
        <mxCell id="zkKq8MAxTLhn3J4NviJU-11" value="name varchar(100)" style="text;strokeColor=none;fillColor=none;align=left;verticalAlign=middle;spacingLeft=4;spacingRight=4;overflow=hidden;points=[[0,0.5],[1,0.5]];portConstraint=eastwest;rotatable=0;whiteSpace=wrap;html=1;" vertex="1" parent="zkKq8MAxTLhn3J4NviJU-9">
          <mxGeometry y="60" width="190" height="30" as="geometry" />
        </mxCell>
        <mxCell id="zkKq8MAxTLhn3J4NviJU-12" value="description text() NULL" style="text;strokeColor=none;fillColor=none;align=left;verticalAlign=middle;spacingLeft=4;spacingRight=4;overflow=hidden;points=[[0,0.5],[1,0.5]];portConstraint=eastwest;rotatable=0;whiteSpace=wrap;html=1;" vertex="1" parent="zkKq8MAxTLhn3J4NviJU-9">
          <mxGeometry y="90" width="190" height="30" as="geometry" />
        </mxCell>
        <mxCell id="VTMMX1xbxROzxiq9HJ-e-1" value="maintenance_programs" style="swimlane;fontStyle=0;childLayout=stackLayout;horizontal=1;startSize=30;horizontalStack=0;resizeParent=1;resizeParentMax=0;resizeLast=0;collapsible=1;marginBottom=0;whiteSpace=wrap;html=1;" vertex="1" parent="1">
          <mxGeometry x="350" y="-310" width="220" height="180" as="geometry" />
        </mxCell>
        <mxCell id="VTMMX1xbxROzxiq9HJ-e-2" value="id (PK)" style="text;strokeColor=none;fillColor=none;align=left;verticalAlign=middle;spacingLeft=4;spacingRight=4;overflow=hidden;points=[[0,0.5],[1,0.5]];portConstraint=eastwest;rotatable=0;whiteSpace=wrap;html=1;" vertex="1" parent="VTMMX1xbxROzxiq9HJ-e-1">
          <mxGeometry y="30" width="220" height="30" as="geometry" />
        </mxCell>
        <mxCell id="VTMMX1xbxROzxiq9HJ-e-11" value="user_id (FK)" style="text;strokeColor=none;fillColor=none;align=left;verticalAlign=middle;spacingLeft=4;spacingRight=4;overflow=hidden;points=[[0,0.5],[1,0.5]];portConstraint=eastwest;rotatable=0;whiteSpace=wrap;html=1;" vertex="1" parent="VTMMX1xbxROzxiq9HJ-e-1">
          <mxGeometry y="60" width="220" height="30" as="geometry" />
        </mxCell>
        <mxCell id="VTMMX1xbxROzxiq9HJ-e-23" value="day int(2)" style="text;strokeColor=none;fillColor=none;align=left;verticalAlign=middle;spacingLeft=4;spacingRight=4;overflow=hidden;points=[[0,0.5],[1,0.5]];portConstraint=eastwest;rotatable=0;whiteSpace=wrap;html=1;" vertex="1" parent="VTMMX1xbxROzxiq9HJ-e-1">
          <mxGeometry y="90" width="220" height="30" as="geometry" />
        </mxCell>
        <mxCell id="VTMMX1xbxROzxiq9HJ-e-26" value="frecuency int()" style="text;strokeColor=none;fillColor=none;align=left;verticalAlign=middle;spacingLeft=4;spacingRight=4;overflow=hidden;points=[[0,0.5],[1,0.5]];portConstraint=eastwest;rotatable=0;whiteSpace=wrap;html=1;" vertex="1" parent="VTMMX1xbxROzxiq9HJ-e-1">
          <mxGeometry y="120" width="220" height="30" as="geometry" />
        </mxCell>
        <mxCell id="VTMMX1xbxROzxiq9HJ-e-24" value="notification int()" style="text;strokeColor=none;fillColor=none;align=left;verticalAlign=middle;spacingLeft=4;spacingRight=4;overflow=hidden;points=[[0,0.5],[1,0.5]];portConstraint=eastwest;rotatable=0;whiteSpace=wrap;html=1;" vertex="1" parent="VTMMX1xbxROzxiq9HJ-e-1">
          <mxGeometry y="150" width="220" height="30" as="geometry" />
        </mxCell>
        <mxCell id="VTMMX1xbxROzxiq9HJ-e-10" value="&lt;h1&gt;&lt;font style=&quot;font-size: 18px;&quot;&gt;Programas de mantenimiento de inventario&lt;/font&gt;&lt;br&gt;&lt;/h1&gt;&lt;p&gt;Tabla para crear programas de mantenimiento con fechas estÃ¡ticas&lt;br&gt;&lt;/p&gt;&lt;ol&gt;&lt;li&gt;ID&lt;/li&gt;&lt;li&gt;Usuario autor&lt;/li&gt;&lt;li&gt;DÃ­a del mes&lt;/li&gt;&lt;li&gt;Frecuencia (ej: cada 2 meses)&lt;/li&gt;&lt;li&gt;notificaciÃ³n anticipada&lt;br&gt;&lt;/li&gt;&lt;/ol&gt;" style="text;html=1;strokeColor=none;fillColor=none;spacing=5;spacingTop=-20;whiteSpace=wrap;overflow=hidden;rounded=0;" vertex="1" parent="1">
          <mxGeometry x="570" y="-315" width="250" height="220" as="geometry" />
        </mxCell>
        <mxCell id="vesqRSIxuu1ZiZg7kVAm-2" value="&lt;h1&gt;&lt;font style=&quot;font-size: 18px;&quot;&gt;Estados&lt;/font&gt;&lt;br&gt;&lt;/h1&gt;&lt;p&gt;Tabla para registrar los diferentes estados de los insumos en distintos Ã¡mbitos&lt;br&gt;&lt;/p&gt;&lt;ol&gt;&lt;li&gt;ID&lt;/li&gt;&lt;li&gt;nombre del estado&lt;/li&gt;&lt;li&gt;descripciÃ³n&lt;/li&gt;&lt;li&gt;tipo de estado correspondiente&lt;br&gt;&lt;/li&gt;&lt;/ol&gt;" style="text;html=1;strokeColor=none;fillColor=none;spacing=5;spacingTop=-20;whiteSpace=wrap;overflow=hidden;rounded=0;" vertex="1" parent="1">
          <mxGeometry x="110" y="-765" width="190" height="150" as="geometry" />
        </mxCell>
        <mxCell id="vesqRSIxuu1ZiZg7kVAm-3" value="&lt;h1&gt;&lt;font style=&quot;font-size: 18px;&quot;&gt;Tipos de unidades&lt;/font&gt;&lt;br&gt;&lt;/h1&gt;&lt;p&gt;Tabla para registrar los tipos de vehÃ­culo bomberil existentes&lt;br&gt;&lt;/p&gt;&lt;ol&gt;&lt;li&gt;ID&lt;/li&gt;&lt;li&gt;nombre del tipo&lt;br&gt;&lt;/li&gt;&lt;li&gt;descripciÃ³n&lt;br&gt;&lt;/li&gt;&lt;/ol&gt;" style="text;html=1;strokeColor=none;fillColor=none;spacing=5;spacingTop=-20;whiteSpace=wrap;overflow=hidden;rounded=0;" vertex="1" parent="1">
          <mxGeometry x="110" y="-570" width="190" height="150" as="geometry" />
        </mxCell>
        <mxCell id="vesqRSIxuu1ZiZg7kVAm-6" value="SISTEMA DE INVENTARIO PARA BOMBEROS - MODELO CONCEPTUAL" style="text;html=1;align=center;verticalAlign=middle;resizable=0;points=[];autosize=1;strokeColor=none;fillColor=none;fontSize=24;" vertex="1" parent="1">
          <mxGeometry x="-90" y="-860" width="830" height="40" as="geometry" />
        </mxCell>
        <mxCell id="Bmr442lRFQMFKDvkIDiL-1" value="lending_items" style="swimlane;fontStyle=0;childLayout=stackLayout;horizontal=1;startSize=30;horizontalStack=0;resizeParent=1;resizeParentMax=0;resizeLast=0;collapsible=1;marginBottom=0;whiteSpace=wrap;html=1;" vertex="1" parent="1">
          <mxGeometry x="827" y="-445" width="190" height="180" as="geometry" />
        </mxCell>
        <mxCell id="Bmr442lRFQMFKDvkIDiL-2" value="id (PK)" style="text;strokeColor=none;fillColor=none;align=left;verticalAlign=middle;spacingLeft=4;spacingRight=4;overflow=hidden;points=[[0,0.5],[1,0.5]];portConstraint=eastwest;rotatable=0;whiteSpace=wrap;html=1;" vertex="1" parent="Bmr442lRFQMFKDvkIDiL-1">
          <mxGeometry y="30" width="190" height="30" as="geometry" />
        </mxCell>
        <mxCell id="Bmr442lRFQMFKDvkIDiL-3" value="inventory_id (FK)" style="text;strokeColor=none;fillColor=none;align=left;verticalAlign=middle;spacingLeft=4;spacingRight=4;overflow=hidden;points=[[0,0.5],[1,0.5]];portConstraint=eastwest;rotatable=0;whiteSpace=wrap;html=1;" vertex="1" parent="Bmr442lRFQMFKDvkIDiL-1">
          <mxGeometry y="60" width="190" height="30" as="geometry" />
        </mxCell>
        <mxCell id="Bmr442lRFQMFKDvkIDiL-7" value="entity varchar(100)" style="text;strokeColor=none;fillColor=none;align=left;verticalAlign=middle;spacingLeft=4;spacingRight=4;overflow=hidden;points=[[0,0.5],[1,0.5]];portConstraint=eastwest;rotatable=0;whiteSpace=wrap;html=1;" vertex="1" parent="Bmr442lRFQMFKDvkIDiL-1">
          <mxGeometry y="90" width="190" height="30" as="geometry" />
        </mxCell>
        <mxCell id="Bmr442lRFQMFKDvkIDiL-5" value="description text() NULL" style="text;strokeColor=none;fillColor=none;align=left;verticalAlign=middle;spacingLeft=4;spacingRight=4;overflow=hidden;points=[[0,0.5],[1,0.5]];portConstraint=eastwest;rotatable=0;whiteSpace=wrap;html=1;" vertex="1" parent="Bmr442lRFQMFKDvkIDiL-1">
          <mxGeometry y="120" width="190" height="30" as="geometry" />
        </mxCell>
        <mxCell id="Bmr442lRFQMFKDvkIDiL-8" value="create_date timestamp()" style="text;strokeColor=none;fillColor=none;align=left;verticalAlign=middle;spacingLeft=4;spacingRight=4;overflow=hidden;points=[[0,0.5],[1,0.5]];portConstraint=eastwest;rotatable=0;whiteSpace=wrap;html=1;" vertex="1" parent="Bmr442lRFQMFKDvkIDiL-1">
          <mxGeometry y="150" width="190" height="30" as="geometry" />
        </mxCell>
        <mxCell id="Bmr442lRFQMFKDvkIDiL-6" value="&lt;h1&gt;&lt;font style=&quot;font-size: 18px;&quot;&gt;PrÃ©stamos de insumo&lt;/font&gt;&lt;br&gt;&lt;/h1&gt;&lt;p&gt;Tabla para los registros de insumos prestados&lt;br&gt;&lt;/p&gt;&lt;ol&gt;&lt;li&gt;ID&lt;/li&gt;&lt;li&gt;insumo&lt;/li&gt;&lt;li&gt;persona/entidad&lt;/li&gt;&lt;li&gt;descripciÃ³n&lt;/li&gt;&lt;li&gt;fecha de creaciÃ³n&lt;br&gt;&lt;/li&gt;&lt;/ol&gt;" style="text;html=1;strokeColor=none;fillColor=none;spacing=5;spacingTop=-20;whiteSpace=wrap;overflow=hidden;rounded=0;" vertex="1" parent="1">
          <mxGeometry x="1017" y="-455" width="180" height="200" as="geometry" />
        </mxCell>
      </root>
    </mxGraphModel>
  </diagram>
</mxfile>
